<svg viewBox="0 0 179 43" xmlns="http://www.w3.org/2000/svg">
  <defs>
    <linearGradient id="gradient-1" x1="61" y1="117" x2="259" y2="127" gradientUnits="userSpaceOnUse" gradientTransform="matrix(0.132441, 0, 0, 0.131347, 29.471052, 7.223288)">
      <stop style="stop-color:white" offset="0"/>
      <stop style="stop-color:white" offset="0.4"/>
      <stop style="stop-color:white" offset="0.83"/>
      <stop style="stop-color:white" offset="1"/>
    </linearGradient>
    <linearGradient id="gradient-2" x1="45" y1="139" x2="45" y2="66" gradientUnits="userSpaceOnUse" gradientTransform="matrix(0.132441, 0, 0, 0.131347, 29.471052, 7.223288)">
      <stop style="stop-color:white" offset="0"/>
      <stop style="stop-color:white" offset="1"/>
    </linearGradient>
  </defs>
  <path id="path-1" style="fill: rgb(255, 255, 255);" d="M 33.585 23.768 C 33.585 25.21 33.905 26.317 34.322 26.987 C 34.869 27.864 35.685 28.236 36.517 28.236 C 37.589 28.236 38.571 27.972 40.462 25.378 C 41.977 23.299 43.763 20.38 44.964 18.55 L 46.997 15.451 C 48.411 13.298 50.046 10.904 51.922 9.282 C 53.453 7.958 55.105 7.223 56.766 7.223 C 59.557 7.223 62.215 8.826 64.25 11.835 C 66.476 15.129 67.557 19.278 67.557 23.56 C 67.557 26.106 67.051 27.976 66.19 29.453 C 65.358 30.883 63.737 32.311 61.01 32.311 L 61.01 28.236 C 63.345 28.236 63.927 26.108 63.927 23.673 C 63.927 20.203 63.112 16.352 61.315 13.6 C 60.039 11.648 58.387 10.455 56.568 10.455 C 54.601 10.455 53.018 11.927 51.24 14.549 C 50.294 15.943 49.324 17.642 48.233 19.558 L 47.033 21.666 C 44.623 25.905 44.012 26.87 42.807 28.463 C 40.695 31.253 38.891 32.311 36.517 32.311 C 33.699 32.311 31.918 31.1 30.815 29.278 C 29.914 27.792 29.472 25.843 29.472 23.622 L 33.585 23.768 Z"/>
  <path id="path-2" style="fill: url(#gradient-1);" d="M 32.715 12.122 C 34.601 9.239 37.323 7.223 40.445 7.223 C 42.252 7.223 44.05 7.754 45.926 9.273 C 47.979 10.935 50.167 13.671 52.897 18.18 L 53.876 19.798 C 56.238 23.702 57.582 25.71 58.369 26.657 C 59.381 27.873 60.09 28.236 61.01 28.236 C 63.345 28.236 63.927 26.108 63.927 23.673 L 67.557 23.56 C 67.557 26.106 67.051 27.976 66.19 29.453 C 65.358 30.883 63.737 32.311 61.01 32.311 C 59.315 32.311 57.813 31.946 56.152 30.391 C 54.875 29.199 53.383 27.08 52.234 25.175 L 48.819 19.517 C 47.105 16.678 45.533 14.56 44.623 13.601 C 43.645 12.57 42.386 11.325 40.378 11.325 C 38.754 11.325 37.373 12.456 36.219 14.185 L 32.715 12.122 Z"/>
  <path id="path-3" style="fill: url(#gradient-2);" d="M 40.378 11.325 C 38.754 11.325 37.373 12.456 36.219 14.185 C 34.585 16.63 33.585 20.271 33.585 23.768 C 33.585 25.21 33.905 26.317 34.322 26.987 L 30.815 29.278 C 29.914 27.792 29.472 25.843 29.472 23.622 C 29.472 19.583 30.59 15.373 32.715 12.122 C 34.601 9.239 37.323 7.223 40.445 7.223 L 40.378 11.325 Z"/>
  <path id="path-4" style="fill: rgb(255, 255, 255);" d="M 74.987 8.518 L 79.745 8.518 L 87.836 23.035 L 95.928 8.518 L 100.583 8.518 L 100.583 32.371 L 96.702 32.371 L 96.702 14.09 L 89.605 26.749 L 85.963 26.749 L 78.869 14.09 L 78.869 32.371 L 74.987 32.371 L 74.987 8.518 Z M 112.747 17.412 C 109.962 17.412 108.286 19.489 107.885 22.063 L 117.333 22.063 C 117.138 19.412 115.597 17.412 112.747 17.412 Z M 104.036 23.528 C 104.036 18.114 107.564 14.174 112.814 14.174 C 117.978 14.174 121.062 18.065 121.062 23.818 L 121.062 24.875 L 107.885 24.875 C 108.352 27.674 110.225 29.56 113.244 29.56 C 115.654 29.56 117.159 28.831 118.587 27.498 L 120.649 30.003 C 118.706 31.775 116.235 32.797 113.107 32.797 C 107.424 32.797 104.036 28.687 104.036 23.528 Z M 125.768 17.754 L 122.195 17.754 L 122.195 14.601 L 125.768 14.601 L 125.768 9.388 L 129.514 9.388 L 129.514 14.601 L 134.942 14.601 L 134.942 17.754 L 129.514 17.754 L 129.514 25.743 C 129.514 28.471 130.393 29.441 132.555 29.441 C 133.541 29.441 134.107 29.357 134.942 29.219 L 134.942 32.337 C 133.902 32.628 132.909 32.762 131.833 32.762 C 127.789 32.762 125.768 30.571 125.768 26.186 L 125.768 17.754 Z M 150.714 20.819 C 149.961 18.936 148.283 17.548 145.817 17.548 C 142.613 17.548 140.56 19.804 140.56 23.477 C 140.56 27.06 142.45 29.424 145.663 29.424 C 148.19 29.424 149.994 27.966 150.714 26.152 L 150.714 20.819 Z M 154.459 32.371 L 150.783 32.371 L 150.783 29.884 C 149.754 31.348 147.884 32.797 144.856 32.797 C 139.984 32.797 136.729 28.752 136.729 23.477 C 136.729 18.153 140.063 14.174 145.062 14.174 C 147.533 14.174 149.472 15.154 150.783 16.884 L 150.783 14.601 L 154.459 14.601 L 154.459 32.371 Z"/>
</svg>
